<svg class="animated" id="freepik_stories-placeholder" xmlns="http://www.w3.org/2000/svg" viewBox="0 0 500 500" version="1.1" xmlns:xlink="http://www.w3.org/1999/xlink" xmlns:svgjs="http://svgjs.com/svgjs"><style>svg#freepik_stories-placeholder:not(.animated) .animable {opacity: 0;}svg#freepik_stories-placeholder.animated #freepik--Window--inject-7 {animation: 1.5s Infinite  linear floating;animation-delay: 0s;}            @keyframes floating {                0% {                    opacity: 1;                    transform: translateY(0px);                }                50% {                    transform: translateY(-10px);                }                100% {                    opacity: 1;                    transform: translateY(0px);                }            }        </style><g id="freepik--background-complete--inject-7" class="animable" style="transform-origin: 250px 225.795px;"><rect y="382.4" width="500" height="0.25" style="fill: rgb(235, 235, 235); transform-origin: 250px 382.525px;" id="el8losgp6bzjs" class="animable"></rect><rect x="288.4" y="396.34" width="33.12" height="0.25" style="fill: rgb(235, 235, 235); transform-origin: 304.96px 396.465px;" id="el8vjsfoepcrv" class="animable"></rect><rect x="407.08" y="393.63" width="8.69" height="0.25" style="fill: rgb(235, 235, 235); transform-origin: 411.425px 393.755px;" id="elpqkrcf38xi" class="animable"></rect><rect x="327.67" y="389.21" width="68.92" height="0.25" style="fill: rgb(235, 235, 235); transform-origin: 362.13px 389.335px;" id="eld75risklio" class="animable"></rect><rect x="194.84" y="395.11" width="30.3" height="0.25" style="fill: rgb(235, 235, 235); transform-origin: 209.99px 395.235px;" id="el2it7c5henxz" class="animable"></rect><rect x="166.72" y="395.11" width="19.22" height="0.25" style="fill: rgb(235, 235, 235); transform-origin: 176.33px 395.235px;" id="el3fzahowmkza" class="animable"></rect><rect x="52.46" y="390.89" width="46.84" height="0.25" style="fill: rgb(235, 235, 235); transform-origin: 75.88px 391.015px;" id="elkdl4tp1xz6" class="animable"></rect><path d="M237,337.8H43.91a5.71,5.71,0,0,1-5.7-5.71V60.66A5.71,5.71,0,0,1,43.91,55H237a5.71,5.71,0,0,1,5.71,5.71V332.09A5.71,5.71,0,0,1,237,337.8ZM43.91,55.2a5.46,5.46,0,0,0-5.45,5.46V332.09a5.46,5.46,0,0,0,5.45,5.46H237a5.47,5.47,0,0,0,5.46-5.46V60.66A5.47,5.47,0,0,0,237,55.2Z" style="fill: rgb(235, 235, 235); transform-origin: 140.46px 196.4px;" id="ele28oyz0mki9" class="animable"></path><path d="M453.31,337.8H260.21a5.72,5.72,0,0,1-5.71-5.71V60.66A5.72,5.72,0,0,1,260.21,55h193.1A5.71,5.71,0,0,1,459,60.66V332.09A5.71,5.71,0,0,1,453.31,337.8ZM260.21,55.2a5.47,5.47,0,0,0-5.46,5.46V332.09a5.47,5.47,0,0,0,5.46,5.46h193.1a5.47,5.47,0,0,0,5.46-5.46V60.66a5.47,5.47,0,0,0-5.46-5.46Z" style="fill: rgb(235, 235, 235); transform-origin: 356.75px 196.4px;" id="el262gwudgmok" class="animable"></path><g id="elt2egojo6ah9"><rect x="57.34" y="77.96" width="170.29" height="156.78" style="fill: rgb(230, 230, 230); transform-origin: 142.485px 156.35px; transform: rotate(180deg);" class="animable"></rect></g><g id="el6h42qhbklwr"><rect x="53.3" y="77.96" width="172.58" height="156.78" style="fill: rgb(245, 245, 245); transform-origin: 139.59px 156.35px; transform: rotate(180deg);" class="animable"></rect></g><g id="ellu85jo6r8e"><rect x="69.04" y="77.32" width="141.1" height="158.07" style="fill: rgb(250, 250, 250); transform-origin: 139.59px 156.355px; transform: rotate(90deg);" class="animable"></rect></g><polygon points="199.09 226.9 145.93 85.81 123.55 85.81 176.71 226.9 199.09 226.9" style="fill: rgb(255, 255, 255); transform-origin: 161.32px 156.355px;" id="el9nip61pf9xe" class="animable"></polygon><polygon points="170.36 226.9 117.21 85.81 101.8 85.81 154.95 226.9 170.36 226.9" style="fill: rgb(255, 255, 255); transform-origin: 136.08px 156.355px;" id="eljyb3fojcvhl" class="animable"></polygon><g id="elqrxy469w45k"><rect x="47.84" y="152.03" width="141.1" height="8.66" style="fill: rgb(230, 230, 230); transform-origin: 118.39px 156.36px; transform: rotate(90deg);" class="animable"></rect></g><g id="elgfwlnsn602v"><rect x="96.03" y="152.03" width="141.1" height="8.66" style="fill: rgb(230, 230, 230); transform-origin: 166.58px 156.36px; transform: rotate(90deg);" class="animable"></rect></g><g id="el2mru3nqjhb8"><rect x="39.73" y="150.45" width="151.9" height="10.94" style="fill: rgb(245, 245, 245); transform-origin: 115.68px 155.92px; transform: rotate(90deg);" class="animable"></rect></g><g id="elgeuqoksto"><rect x="87.93" y="150.45" width="151.9" height="10.94" style="fill: rgb(245, 245, 245); transform-origin: 163.88px 155.92px; transform: rotate(90deg);" class="animable"></rect></g><g id="elf5rvdu788nq"><rect x="-9.61" y="155.97" width="141.1" height="0.77" style="fill: rgb(230, 230, 230); transform-origin: 60.94px 156.355px; transform: rotate(90deg);" class="animable"></rect></g><rect x="270.69" y="79.4" width="175.19" height="122.54" style="fill: rgb(235, 235, 235); transform-origin: 358.285px 140.67px;" id="el4366xdwmo3p" class="animable"></rect><g id="eldk78fno6okc"><rect x="445.88" y="79.4" width="1.48" height="122.54" style="fill: rgb(224, 224, 224); transform-origin: 446.62px 140.67px; transform: rotate(180deg);" class="animable"></rect></g><g id="elhc9kifghapc"><rect x="303.15" y="59.21" width="110.27" height="162.91" style="fill: rgb(255, 255, 255); transform-origin: 358.285px 140.665px; transform: rotate(90deg);" class="animable"></rect></g><g id="eltp8aoidbl4"><rect x="222.3" y="140.06" width="110.27" height="1.22" style="fill: rgb(224, 224, 224); transform-origin: 277.435px 140.67px; transform: rotate(90deg);" class="animable"></rect></g><rect x="380.55" y="97.43" width="39.8" height="55.92" style="fill: rgb(245, 245, 245); transform-origin: 400.45px 125.39px;" id="el9ul3ht7678u" class="animable"></rect><rect x="289.59" y="107.79" width="39.8" height="55.92" style="fill: rgb(245, 245, 245); transform-origin: 309.49px 135.75px;" id="el8q8igmvjoi8" class="animable"></rect><rect x="353.01" y="121.7" width="39.8" height="55.92" style="fill: rgb(235, 235, 235); transform-origin: 372.91px 149.66px;" id="eljxw85r5edvh" class="animable"></rect><rect x="322.69" y="124.16" width="15.54" height="15.54" style="fill: rgb(245, 245, 245); transform-origin: 330.46px 131.93px;" id="elcf7loo522q8" class="animable"></rect><rect x="318.18" y="155.94" width="15.54" height="15.54" style="fill: rgb(240, 240, 240); transform-origin: 325.95px 163.71px;" id="elw9u0iujrls" class="animable"></rect><path d="M409.1,375.21a7.19,7.19,0,1,1,7.18,7.19A7.19,7.19,0,0,1,409.1,375.21Z" style="fill: rgb(224, 224, 224); transform-origin: 416.29px 375.21px;" id="elo746jr3vkm" class="animable"></path><path d="M421.22,375.21a7.19,7.19,0,1,1,7.19,7.19A7.19,7.19,0,0,1,421.22,375.21Z" style="fill: rgb(224, 224, 224); transform-origin: 428.41px 375.21px;" id="elfwxwxgts03f" class="animable"></path><path d="M222.67,375.21a7.19,7.19,0,1,1,7.19,7.19A7.19,7.19,0,0,1,222.67,375.21Z" style="fill: rgb(224, 224, 224); transform-origin: 229.86px 375.21px;" id="elwmduoe189z" class="animable"></path><path d="M234.8,375.21A7.19,7.19,0,1,1,242,382.4,7.19,7.19,0,0,1,234.8,375.21Z" style="fill: rgb(224, 224, 224); transform-origin: 241.99px 375.21px;" id="el02112zktpxr2" class="animable"></path><g id="el9jnugwllani"><rect x="421.54" y="223" width="17.01" height="153.2" style="fill: rgb(235, 235, 235); transform-origin: 430.045px 299.6px; transform: rotate(180deg);" class="animable"></rect></g><rect x="221.2" y="223" width="200.34" height="153.2" style="fill: rgb(245, 245, 245); transform-origin: 321.37px 299.6px;" id="el8odsx24ji8s" class="animable"></rect><rect x="227.71" y="229.29" width="187.31" height="140.63" style="fill: rgb(235, 235, 235); transform-origin: 321.365px 299.605px;" id="el9fh8vgv082s" class="animable"></rect><rect x="230.38" y="288.43" width="181.98" height="78.89" style="fill: rgb(245, 245, 245); transform-origin: 321.37px 327.875px;" id="elt6e7qb7i2x" class="animable"></rect><rect x="230.38" y="232.25" width="181.98" height="54.19" style="fill: rgb(245, 245, 245); transform-origin: 321.37px 259.345px;" id="ele7rm8w10e" class="animable"></rect><path d="M263.49,289.77H379.25a1.34,1.34,0,0,0,1.33-1.34h0a1.34,1.34,0,0,0-1.33-1.33H263.49a1.34,1.34,0,0,0-1.33,1.33h0A1.34,1.34,0,0,0,263.49,289.77Z" style="fill: rgb(235, 235, 235); transform-origin: 321.37px 288.435px;" id="el4zv883rhavg" class="animable"></path><path d="M263.49,233.58H379.25a1.34,1.34,0,0,0,1.33-1.33h0a1.34,1.34,0,0,0-1.33-1.34H263.49a1.34,1.34,0,0,0-1.33,1.34h0A1.34,1.34,0,0,0,263.49,233.58Z" style="fill: rgb(235, 235, 235); transform-origin: 321.37px 232.245px;" id="elutcp3ft8ap" class="animable"></path><rect x="63.91" y="304.17" width="88.22" height="78.22" style="fill: rgb(245, 245, 245); transform-origin: 108.02px 343.28px;" id="elcyxh94feg17" class="animable"></rect><g id="el374meepgb9k"><rect x="152.12" y="304.17" width="34.29" height="78.22" style="fill: rgb(235, 235, 235); transform-origin: 169.265px 343.28px; transform: rotate(180deg);" class="animable"></rect></g><rect x="59.56" y="290.45" width="94.48" height="13.72" style="fill: rgb(235, 235, 235); transform-origin: 106.8px 297.31px;" id="elgm2fnr4zisb" class="animable"></rect><g id="elbk0lxym0r5h"><rect x="154.04" y="290.45" width="36.73" height="13.72" style="fill: rgb(224, 224, 224); transform-origin: 172.405px 297.31px; transform: rotate(180deg);" class="animable"></rect></g></g><g id="freepik--Shadow--inject-7" class="animable" style="transform-origin: 250px 416.24px;"><ellipse id="freepik--path--inject-7" cx="250" cy="416.24" rx="193.89" ry="11.32" style="fill: rgb(245, 245, 245); transform-origin: 250px 416.24px;" class="animable"></ellipse></g><g id="freepik--Window--inject-7" class="animable" style="transform-origin: 277.97px 201.445px;"><rect x="407.69" y="186.89" width="1" height="11.92" style="fill: rgb(45, 47, 49); transform-origin: 408.19px 192.85px;" id="elffhp19sp2q" class="animable"></rect><rect x="407.69" y="152.75" width="1" height="25.8" style="fill: rgb(45, 47, 49); transform-origin: 408.19px 165.65px;" id="el4qcvn1vyhze" class="animable"></rect><rect x="147.25" y="131.91" width="254.07" height="143.28" rx="7.15" style="fill: rgb(224, 224, 224); transform-origin: 274.285px 203.55px;" id="elhshcos6bqjn" class="animable"></rect><rect x="150.9" y="128.26" width="254.07" height="143.28" rx="7.15" style="fill: rgb(255, 255, 255); transform-origin: 277.935px 199.9px;" id="el1por94ffhlm" class="animable"></rect><path d="M397.83,272H158.05a7.66,7.66,0,0,1-7.65-7.65v-129a7.66,7.66,0,0,1,7.65-7.65H397.83a7.66,7.66,0,0,1,7.65,7.65v129A7.66,7.66,0,0,1,397.83,272ZM158.05,128.76a6.66,6.66,0,0,0-6.65,6.65v129a6.66,6.66,0,0,0,6.65,6.65H397.83a6.66,6.66,0,0,0,6.65-6.65v-129a6.66,6.66,0,0,0-6.65-6.65Z" style="fill: rgb(45, 47, 49); transform-origin: 277.94px 199.85px;" id="elzke23e83lbf" class="animable"></path><path d="M262.8,190.49H170.39a3.73,3.73,0,0,1-3.72-3.73V174a3.73,3.73,0,0,1,3.72-3.73H262.8a3.73,3.73,0,0,1,3.72,3.73v12.73A3.73,3.73,0,0,1,262.8,190.49ZM170.39,171.3a2.73,2.73,0,0,0-2.72,2.73v12.73a2.72,2.72,0,0,0,2.72,2.73H262.8a2.72,2.72,0,0,0,2.72-2.73V174a2.73,2.73,0,0,0-2.72-2.73Z" style="fill: rgb(224, 224, 224); transform-origin: 216.595px 180.38px;" id="el0omidwievsbl" class="animable"></path><path d="M311.48,217.48H170.39a3.73,3.73,0,0,1-3.72-3.72V201a3.73,3.73,0,0,1,3.72-3.73H311.48A3.73,3.73,0,0,1,315.2,201v12.74A3.73,3.73,0,0,1,311.48,217.48ZM170.39,198.29a2.73,2.73,0,0,0-2.72,2.73v12.74a2.72,2.72,0,0,0,2.72,2.72H311.48a2.72,2.72,0,0,0,2.72-2.72V201a2.73,2.73,0,0,0-2.72-2.73Z" style="fill: rgb(224, 224, 224); transform-origin: 240.935px 207.375px;" id="elod3s5mcsha" class="animable"></path><path d="M171.46,211.4a.5.5,0,0,1-.5-.5v-7a.5.5,0,0,1,1,0v7A.5.5,0,0,1,171.46,211.4Z" style="fill: rgb(224, 224, 224); transform-origin: 171.46px 207.4px;" id="eld338lh9e10b" class="animable"></path><path d="M373.57,190.49H281.16a3.73,3.73,0,0,1-3.72-3.73V174a3.73,3.73,0,0,1,3.72-3.73h92.41a3.73,3.73,0,0,1,3.72,3.73v12.73A3.73,3.73,0,0,1,373.57,190.49ZM281.16,171.3a2.73,2.73,0,0,0-2.72,2.73v12.73a2.72,2.72,0,0,0,2.72,2.73h92.41a2.72,2.72,0,0,0,2.72-2.73V174a2.73,2.73,0,0,0-2.72-2.73Z" style="fill: rgb(224, 224, 224); transform-origin: 327.365px 180.38px;" id="elbettg1bddfr" class="animable"></path><g id="eljzg3jdcxn8m"><path d="M230.51,152.75H171.28a4.12,4.12,0,0,1-4.11-4.11h0a4.12,4.12,0,0,1,4.11-4.11h59.23a4.12,4.12,0,0,1,4.11,4.11h0A4.12,4.12,0,0,1,230.51,152.75Z" style="fill: rgb(45, 47, 49); opacity: 0.2; transform-origin: 200.895px 148.64px;" class="animable"></path></g><g id="el3evwdr01hf5"><path d="M246.81,232H182.63a1.65,1.65,0,0,1-1.64-1.64h0a1.65,1.65,0,0,1,1.64-1.64h64.18a1.64,1.64,0,0,1,1.63,1.64h0A1.64,1.64,0,0,1,246.81,232Z" style="fill: rgb(45, 47, 49); opacity: 0.2; transform-origin: 214.715px 230.36px;" class="animable"></path></g><circle cx="170.48" cy="230.39" r="3.31" style="fill: rgb(45, 47, 49); transform-origin: 170.48px 230.39px;" id="elww30ib5dkzf" class="animable"></circle><path d="M282.23,184.41a.5.5,0,0,1-.5-.5v-7a.5.5,0,0,1,1,0v7A.5.5,0,0,1,282.23,184.41Z" style="fill: rgb(224, 224, 224); transform-origin: 282.23px 180.41px;" id="elydktt3j1r9q" class="animable"></path><path d="M171.46,184.41a.5.5,0,0,1-.5-.5v-7a.5.5,0,0,1,1,0v7A.5.5,0,0,1,171.46,184.41Z" style="fill: rgb(224, 224, 224); transform-origin: 171.46px 180.41px;" id="elc00uyi55vsn" class="animable"></path><g id="elcg7zz2j023"><g style="opacity: 0.6; transform-origin: 195.177px 180.357px;" class="animable"><path d="M175.44,183.38v-6.15h4.15V178h-3.33v1.9h2.88v.73h-2.88v2.79Z" style="fill: rgb(38, 50, 56); transform-origin: 177.515px 180.325px;" id="elf8epp88xhqt" class="animable"></path><path d="M180.55,178.1v-.87h.75v.87Zm0,5.28v-4.45h.75v4.45Z" style="fill: rgb(38, 50, 56); transform-origin: 180.925px 180.305px;" id="el28kct73kvv9" class="animable"></path><path d="M182.44,183.38v-4.45h.68v.67a2.06,2.06,0,0,1,.48-.62.86.86,0,0,1,.49-.15,1.47,1.47,0,0,1,.77.24l-.26.7a1.05,1.05,0,0,0-.55-.16.77.77,0,0,0-.45.14.85.85,0,0,0-.28.42,3.07,3.07,0,0,0-.12.88v2.33Z" style="fill: rgb(38, 50, 56); transform-origin: 183.65px 181.105px;" id="els8rus448ho8" class="animable"></path><path d="M185,182.05l.74-.12a1.09,1.09,0,0,0,.35.69,1.22,1.22,0,0,0,.81.24,1.2,1.2,0,0,0,.77-.21.68.68,0,0,0,.25-.5.46.46,0,0,0-.22-.4,3.16,3.16,0,0,0-.78-.26,7.69,7.69,0,0,1-1.15-.36,1.1,1.1,0,0,1-.48-.42,1.13,1.13,0,0,1-.17-.6,1.2,1.2,0,0,1,.51-1,1.53,1.53,0,0,1,.48-.22,2.27,2.27,0,0,1,.65-.09,2.57,2.57,0,0,1,.92.15,1.25,1.25,0,0,1,.59.41,1.69,1.69,0,0,1,.26.69l-.74.1a.85.85,0,0,0-.29-.54,1.06,1.06,0,0,0-.68-.19,1.22,1.22,0,0,0-.75.17.51.51,0,0,0-.22.4.39.39,0,0,0,.09.26.73.73,0,0,0,.29.21l.67.19A9.86,9.86,0,0,1,188,181a1.05,1.05,0,0,1,.67,1,1.24,1.24,0,0,1-.22.71,1.4,1.4,0,0,1-.63.51,2.19,2.19,0,0,1-.94.19,2.08,2.08,0,0,1-1.32-.36A1.64,1.64,0,0,1,185,182.05Z" style="fill: rgb(38, 50, 56); transform-origin: 186.835px 181.107px;" id="eln75kuimfce" class="animable"></path><path d="M191.25,182.7l.1.67a3.15,3.15,0,0,1-.57.07,1.35,1.35,0,0,1-.63-.13.77.77,0,0,1-.32-.35,2.72,2.72,0,0,1-.09-.89v-2.56h-.56v-.58h.56v-1.1l.75-.46v1.56h.76v.58h-.76v2.61a1.19,1.19,0,0,0,0,.41.31.31,0,0,0,.13.15.55.55,0,0,0,.25,0Z" style="fill: rgb(38, 50, 56); transform-origin: 190.265px 180.405px;" id="el0gccz5bqnwl7" class="animable"></path><path d="M194.37,183.38v-4.45h.68v.63a1.57,1.57,0,0,1,1.41-.73,1.78,1.78,0,0,1,.74.14,1.2,1.2,0,0,1,.51.38,1.41,1.41,0,0,1,.23.56,4.11,4.11,0,0,1,0,.73v2.74h-.75v-2.71a2,2,0,0,0-.09-.69.72.72,0,0,0-.31-.36,1,1,0,0,0-.53-.14,1.19,1.19,0,0,0-.83.31,1.51,1.51,0,0,0-.35,1.16v2.43Z" style="fill: rgb(38, 50, 56); transform-origin: 196.163px 181.104px;" id="elw46197nf5jc" class="animable"></path><path d="M202,182.83a3.14,3.14,0,0,1-.8.5,2.32,2.32,0,0,1-.84.15,1.6,1.6,0,0,1-1.12-.36,1.18,1.18,0,0,1-.4-.92,1.2,1.2,0,0,1,.15-.59,1.28,1.28,0,0,1,.39-.44,1.65,1.65,0,0,1,.54-.24,6.12,6.12,0,0,1,.67-.12,6.82,6.82,0,0,0,1.35-.26v-.19a.83.83,0,0,0-.21-.65,1.26,1.26,0,0,0-.86-.26,1.28,1.28,0,0,0-.78.19,1.1,1.1,0,0,0-.38.66l-.74-.1a2,2,0,0,1,.33-.77A1.58,1.58,0,0,1,200,179a3.11,3.11,0,0,1,1-.15,2.7,2.7,0,0,1,.93.13,1.21,1.21,0,0,1,.52.34,1.09,1.09,0,0,1,.23.51,3.72,3.72,0,0,1,0,.7v1a10.92,10.92,0,0,0,0,1.33,1.74,1.74,0,0,0,.19.54h-.79A1.77,1.77,0,0,1,202,182.83Zm-.06-1.69a5.05,5.05,0,0,1-1.23.29,2.49,2.49,0,0,0-.66.15.73.73,0,0,0-.3.24.65.65,0,0,0-.1.36.64.64,0,0,0,.23.51,1,1,0,0,0,.66.2,1.64,1.64,0,0,0,.78-.19,1.21,1.21,0,0,0,.5-.53,1.83,1.83,0,0,0,.12-.75Z" style="fill: rgb(38, 50, 56); transform-origin: 200.855px 181.166px;" id="el6p8cdek78mf" class="animable"></path><path d="M203.91,183.38v-4.45h.68v.62a1.45,1.45,0,0,1,.55-.52,1.5,1.5,0,0,1,.79-.2,1.52,1.52,0,0,1,.81.2,1.09,1.09,0,0,1,.45.58,1.6,1.6,0,0,1,1.38-.78,1.34,1.34,0,0,1,1,.36,1.56,1.56,0,0,1,.36,1.13v3.06h-.75v-2.81a2,2,0,0,0-.07-.65.64.64,0,0,0-.27-.32.84.84,0,0,0-.45-.12,1.06,1.06,0,0,0-.78.31,1.36,1.36,0,0,0-.31,1v2.59h-.76v-2.89a1.31,1.31,0,0,0-.18-.76.68.68,0,0,0-.6-.25,1.1,1.1,0,0,0-.59.17.92.92,0,0,0-.39.49,2.71,2.71,0,0,0-.13.93v2.31Z" style="fill: rgb(38, 50, 56); transform-origin: 206.923px 181.104px;" id="elplmgv1p89l" class="animable"></path><path d="M214.1,181.94l.78.1a1.87,1.87,0,0,1-.68,1.06,2.31,2.31,0,0,1-2.82-.22,2.37,2.37,0,0,1-.57-1.69,2.47,2.47,0,0,1,.57-1.74,2,2,0,0,1,1.5-.62,1.9,1.9,0,0,1,1.46.6,2.42,2.42,0,0,1,.57,1.71,1.56,1.56,0,0,1,0,.2h-3.31a1.68,1.68,0,0,0,.41,1.13,1.24,1.24,0,0,0,.93.39,1.2,1.2,0,0,0,.71-.22A1.48,1.48,0,0,0,214.1,181.94Zm-2.47-1.22h2.48a1.54,1.54,0,0,0-.28-.84,1.15,1.15,0,0,0-.94-.43,1.21,1.21,0,0,0-.87.34A1.37,1.37,0,0,0,211.63,180.72Z" style="fill: rgb(38, 50, 56); transform-origin: 212.86px 181.154px;" id="elnxb38lcusae" class="animable"></path></g></g><g id="el747djdu6oh"><g style="opacity: 0.6; transform-origin: 185.505px 207.352px;" class="animable"><path d="M175.42,210.37v-6.14h4.44V205h-3.63v1.88h3.4v.72h-3.4v2.09H180v.73Z" style="fill: rgb(38, 50, 56); transform-origin: 177.71px 207.325px;" id="eli2n7hg6wxa" class="animable"></path><path d="M181,210.37v-4.45h.67v.62a1.65,1.65,0,0,1,.56-.52,1.57,1.57,0,0,1,.79-.2,1.52,1.52,0,0,1,.81.2,1.14,1.14,0,0,1,.45.58,1.59,1.59,0,0,1,1.37-.78,1.35,1.35,0,0,1,1,.37,1.54,1.54,0,0,1,.36,1.12v3.06h-.75v-2.8a2,2,0,0,0-.08-.66.68.68,0,0,0-.26-.32.85.85,0,0,0-.46-.12,1.1,1.1,0,0,0-.78.31,1.42,1.42,0,0,0-.31,1v2.59h-.75v-2.89a1.31,1.31,0,0,0-.18-.76.74.74,0,0,0-.61-.25,1.12,1.12,0,0,0-.59.17.92.92,0,0,0-.39.49,2.83,2.83,0,0,0-.12.93v2.31Z" style="fill: rgb(38, 50, 56); transform-origin: 184.008px 208.094px;" id="elr4q1le318j" class="animable"></path><path d="M191.08,209.82a2.79,2.79,0,0,1-.81.5,2.27,2.27,0,0,1-.83.15,1.63,1.63,0,0,1-1.13-.36,1.18,1.18,0,0,1-.39-.91,1.21,1.21,0,0,1,.15-.6,1.28,1.28,0,0,1,.39-.44,1.89,1.89,0,0,1,.54-.24,5.69,5.69,0,0,1,.67-.12,5.92,5.92,0,0,0,1.34-.26,1.77,1.77,0,0,0,0-.19.8.8,0,0,0-.22-.65,1.23,1.23,0,0,0-.85-.26,1.37,1.37,0,0,0-.79.19,1.1,1.1,0,0,0-.37.66l-.74-.1a2,2,0,0,1,.33-.77,1.43,1.43,0,0,1,.67-.44,2.8,2.8,0,0,1,1-.16,2.7,2.7,0,0,1,.93.13,1.25,1.25,0,0,1,.53.34,1.33,1.33,0,0,1,.23.51,4.88,4.88,0,0,1,0,.7v1a9,9,0,0,0,.05,1.33,1.52,1.52,0,0,0,.19.54h-.79A1.54,1.54,0,0,1,191.08,209.82Zm-.07-1.68a5.68,5.68,0,0,1-1.23.28,3.33,3.33,0,0,0-.65.15.68.68,0,0,0-.3.25.61.61,0,0,0-.11.35.66.66,0,0,0,.23.51,1,1,0,0,0,.67.2,1.6,1.6,0,0,0,.77-.19,1.14,1.14,0,0,0,.5-.52,1.88,1.88,0,0,0,.12-.76Z" style="fill: rgb(38, 50, 56); transform-origin: 189.945px 208.146px;" id="elgzjpk6jriqp" class="animable"></path><path d="M193,205.09v-.86h.76v.86Zm0,5.28v-4.45h.76v4.45Z" style="fill: rgb(38, 50, 56); transform-origin: 193.38px 207.3px;" id="elr3qik0moddl" class="animable"></path><path d="M194.84,210.37v-6.14h.75v6.14Z" style="fill: rgb(38, 50, 56); transform-origin: 195.215px 207.3px;" id="elqltla2h6k7" class="animable"></path></g></g><g id="elmuhjfejp6s"><g style="opacity: 0.6; transform-origin: 305.682px 180.357px;" class="animable"><path d="M286.14,183.38v-6.15H287v5.42h3v.73Z" style="fill: rgb(38, 50, 56); transform-origin: 288.07px 180.305px;" id="elc3wufxweag" class="animable"></path><path d="M293.75,182.83a3,3,0,0,1-.81.5,2.27,2.27,0,0,1-.83.15,1.63,1.63,0,0,1-1.13-.36,1.26,1.26,0,0,1-.24-1.51,1.28,1.28,0,0,1,.39-.44,1.65,1.65,0,0,1,.54-.24,5.69,5.69,0,0,1,.67-.12,6.82,6.82,0,0,0,1.35-.26v-.19a.83.83,0,0,0-.21-.65,1.28,1.28,0,0,0-.86-.26,1.3,1.3,0,0,0-.79.19,1.1,1.1,0,0,0-.37.66l-.74-.1a2,2,0,0,1,.33-.77,1.58,1.58,0,0,1,.67-.45,3.07,3.07,0,0,1,1-.15,2.6,2.6,0,0,1,.92.13,1.25,1.25,0,0,1,.53.34,1.09,1.09,0,0,1,.23.51,3.72,3.72,0,0,1,0,.7v1a9.09,9.09,0,0,0,.05,1.33,1.52,1.52,0,0,0,.19.54h-.79A1.54,1.54,0,0,1,293.75,182.83Zm-.06-1.69a5.31,5.31,0,0,1-1.23.29,2.39,2.39,0,0,0-.66.15.73.73,0,0,0-.3.24.66.66,0,0,0-.11.36.68.68,0,0,0,.23.51,1,1,0,0,0,.67.2,1.67,1.67,0,0,0,.78-.19,1.27,1.27,0,0,0,.5-.53,1.83,1.83,0,0,0,.12-.75Z" style="fill: rgb(38, 50, 56); transform-origin: 292.615px 181.156px;" id="elvq6bkfnpwsj" class="animable"></path><path d="M295.32,182.05l.74-.12a1,1,0,0,0,.35.69,1.21,1.21,0,0,0,.8.24,1.16,1.16,0,0,0,.77-.21.66.66,0,0,0,.26-.5.45.45,0,0,0-.23-.4,2.88,2.88,0,0,0-.77-.26,7.69,7.69,0,0,1-1.15-.36,1.1,1.1,0,0,1-.48-.42,1.13,1.13,0,0,1-.17-.6,1.2,1.2,0,0,1,.51-1,1.53,1.53,0,0,1,.48-.22,2.27,2.27,0,0,1,.65-.09,2.57,2.57,0,0,1,.92.15,1.17,1.17,0,0,1,.58.41,1.45,1.45,0,0,1,.26.69l-.73.1a.81.81,0,0,0-.3-.54,1,1,0,0,0-.68-.19,1.21,1.21,0,0,0-.74.17.49.49,0,0,0-.22.4.39.39,0,0,0,.09.26.66.66,0,0,0,.29.21l.67.19a8.92,8.92,0,0,1,1.11.35,1.1,1.1,0,0,1,.5.39,1.13,1.13,0,0,1,.18.65,1.24,1.24,0,0,1-.22.71,1.46,1.46,0,0,1-.63.51,2.19,2.19,0,0,1-.94.19,2.08,2.08,0,0,1-1.32-.36A1.64,1.64,0,0,1,295.32,182.05Z" style="fill: rgb(38, 50, 56); transform-origin: 297.165px 181.127px;" id="elc7ke3p7lny" class="animable"></path><path d="M301.55,182.7l.11.67a3.15,3.15,0,0,1-.57.07,1.35,1.35,0,0,1-.63-.13.77.77,0,0,1-.32-.35,2.72,2.72,0,0,1-.09-.89v-2.56h-.56v-.58h.56v-1.1l.75-.46v1.56h.75v.58h-.75v2.61a1.19,1.19,0,0,0,0,.41.35.35,0,0,0,.12.15.63.63,0,0,0,.26,0Z" style="fill: rgb(38, 50, 56); transform-origin: 300.575px 180.405px;" id="el1279z94dvhup" class="animable"></path><path d="M304.67,183.38v-4.45h.68v.63a1.6,1.6,0,0,1,1.42-.73,1.81,1.81,0,0,1,.74.14,1.17,1.17,0,0,1,.5.38,1.42,1.42,0,0,1,.24.56,4.11,4.11,0,0,1,0,.73v2.74h-.75v-2.71a2,2,0,0,0-.09-.69.72.72,0,0,0-.31-.36,1,1,0,0,0-.53-.14,1.19,1.19,0,0,0-.83.31,1.51,1.51,0,0,0-.35,1.16v2.43Z" style="fill: rgb(38, 50, 56); transform-origin: 306.468px 181.104px;" id="elim9nilhdyc" class="animable"></path><path d="M312.35,182.83a3,3,0,0,1-.81.5,2.23,2.23,0,0,1-.83.15,1.59,1.59,0,0,1-1.12-.36,1.18,1.18,0,0,1-.4-.92,1.2,1.2,0,0,1,.15-.59,1.28,1.28,0,0,1,.39-.44,1.65,1.65,0,0,1,.54-.24,5.69,5.69,0,0,1,.67-.12,6.82,6.82,0,0,0,1.35-.26v-.19a.83.83,0,0,0-.21-.65,1.26,1.26,0,0,0-.86-.26,1.32,1.32,0,0,0-.79.19,1.1,1.1,0,0,0-.37.66l-.74-.1a2,2,0,0,1,.33-.77,1.58,1.58,0,0,1,.67-.45,3.11,3.11,0,0,1,1-.15,2.7,2.7,0,0,1,.93.13,1.21,1.21,0,0,1,.52.34,1.09,1.09,0,0,1,.23.51,3.72,3.72,0,0,1,0,.7v1a10.92,10.92,0,0,0,.05,1.33,1.52,1.52,0,0,0,.19.54h-.79A1.54,1.54,0,0,1,312.35,182.83Zm-.06-1.69a5.31,5.31,0,0,1-1.23.29,2.49,2.49,0,0,0-.66.15.73.73,0,0,0-.3.24.65.65,0,0,0-.1.36.67.67,0,0,0,.22.51,1,1,0,0,0,.67.2,1.67,1.67,0,0,0,.78-.19,1.27,1.27,0,0,0,.5-.53,1.83,1.83,0,0,0,.12-.75Z" style="fill: rgb(38, 50, 56); transform-origin: 311.215px 181.156px;" id="el47eh15lreqc" class="animable"></path><path d="M314.22,183.38v-4.45h.67v.62a1.55,1.55,0,0,1,.56-.52,1.5,1.5,0,0,1,.79-.2,1.52,1.52,0,0,1,.81.2,1.14,1.14,0,0,1,.45.58,1.59,1.59,0,0,1,1.37-.78,1.38,1.38,0,0,1,1,.36,1.56,1.56,0,0,1,.36,1.13v3.06h-.75v-2.81a2,2,0,0,0-.08-.65.58.58,0,0,0-.26-.32.84.84,0,0,0-.45-.12,1,1,0,0,0-.78.31,1.36,1.36,0,0,0-.31,1v2.59h-.76v-2.89a1.31,1.31,0,0,0-.18-.76.69.69,0,0,0-.6-.25,1.1,1.1,0,0,0-.59.17,1,1,0,0,0-.4.49,2.75,2.75,0,0,0-.12.93v2.31Z" style="fill: rgb(38, 50, 56); transform-origin: 317.228px 181.104px;" id="elwm8yj54g4m" class="animable"></path><path d="M324.41,181.94l.78.1a1.87,1.87,0,0,1-.68,1.06,2.06,2.06,0,0,1-1.27.38,2,2,0,0,1-1.55-.6,2.37,2.37,0,0,1-.57-1.69,2.47,2.47,0,0,1,.57-1.74,2,2,0,0,1,1.5-.62,1.92,1.92,0,0,1,1.46.6,2.42,2.42,0,0,1,.57,1.71c0,.05,0,.12,0,.2h-3.32a1.73,1.73,0,0,0,.42,1.13,1.24,1.24,0,0,0,.93.39,1.2,1.2,0,0,0,.71-.22A1.48,1.48,0,0,0,324.41,181.94Zm-2.47-1.22h2.48a1.54,1.54,0,0,0-.28-.84,1.17,1.17,0,0,0-.94-.43,1.19,1.19,0,0,0-.87.34A1.37,1.37,0,0,0,321.94,180.72Z" style="fill: rgb(38, 50, 56); transform-origin: 323.17px 181.156px;" id="ellix1zwj74ag" class="animable"></path></g></g><rect x="293.58" y="243.91" width="45.12" height="17.1" rx="5.46" style="fill: rgb(45, 47, 49); transform-origin: 316.14px 252.46px;" id="elykklxonq7w" class="animable"></rect><g id="elyid5x5w83jb"><rect x="348.18" y="243.91" width="45.12" height="17.1" rx="5.46" style="fill: rgb(45, 47, 49); opacity: 0.2; transform-origin: 370.74px 252.46px;" class="animable"></rect></g></g><g id="freepik--Character--inject-7" class="animable" style="transform-origin: 130.98px 249.307px;"><path d="M136.81,87.18c-7.39-1.11-9.07,5.6-16.84,5.33a10.1,10.1,0,0,0,5.28,5.8s-6.17,4.48-4.79,11.18c4.83-5.47,11.32-.28,18.39-.49,14.67-.46,20-7.25,14.89-13.08,4.72-6-8.19-9.18-7.89-13.63-1.48.69-1.43,3.53-1.43,3.53a15.14,15.14,0,0,1-9.92-3.28C134.31,85.28,136.81,87.18,136.81,87.18Z" style="fill: rgb(38, 50, 56); transform-origin: 137.801px 95.89px;" id="elghms7zyouy" class="animable"></path><path d="M151,95.64a4.39,4.39,0,0,0,5.45-3.88C158.75,96.7,155.14,99.38,151,95.64Z" style="fill: rgb(38, 50, 56); transform-origin: 154.084px 94.5775px;" id="elru665nf6nu" class="animable"></path><polygon points="157.9 396.79 150.94 400.8 140.69 385.34 147.65 381.33 157.9 396.79" style="fill: rgb(255, 139, 123); transform-origin: 149.295px 391.065px;" id="elbpoiczt4cg9" class="animable"></polygon><path d="M150.1,400.21l7.82-4.5a.56.56,0,0,1,.79.17l4,5.92a1.4,1.4,0,0,1-.5,1.92c-2.75,1.53-4.14,2.12-7.58,4.1-2.12,1.22-9.76,5.3-15.4,4.87-3.28-.25-3.36-3.25-1.94-3.58,6.37-1.47,10.82-5.12,11.89-7.79A2.31,2.31,0,0,1,150.1,400.21Z" style="fill: rgb(38, 50, 56); transform-origin: 149.659px 404.168px;" id="el39q7sdl0w6h" class="animable"></path><g id="elivuuin5jbih"><polygon points="147.65 381.33 140.69 385.34 145.98 393.31 152.94 389.3 147.65 381.33" style="opacity: 0.2; transform-origin: 146.815px 387.32px;" class="animable"></polygon></g><path d="M109,201.94s-16.84,66.23-18.6,89.12c-1.92,25.06,51.34,101.38,51.34,101.38l13-6.82s-24.66-43.53-41.11-92.75c8-25.75,23.89-88.75,23.89-88.75Z" style="fill: rgb(45, 47, 49); transform-origin: 122.545px 297.19px;" id="el81w52qinm5w" class="animable"></path><g id="eljodraxjxakj"><g style="opacity: 0.3; transform-origin: 122.545px 297.19px;" class="animable"><path d="M109,201.94s-16.84,66.23-18.6,89.12c-1.92,25.06,51.34,101.38,51.34,101.38l13-6.82s-24.66-43.53-41.11-92.75c8-25.75,23.89-88.75,23.89-88.75Z" style="fill: rgb(255, 255, 255); transform-origin: 122.545px 297.19px;" id="el9izr5gbafcn" class="animable"></path></g></g><g id="elyttv0a39j1k"><path d="M123.92,228c-6.61,11.58-8.84,39.24-7.14,54.35,4.62-16.09,10.44-38.17,14.75-54.76C128.63,225.32,125.78,224.7,123.92,228Z" style="fill: rgb(45, 47, 49); opacity: 0.4; transform-origin: 123.881px 254.028px;" class="animable"></path></g><polygon points="155.22 385.58 141.27 392.89 137.23 388.21 153.76 380.85 155.22 385.58" style="fill: rgb(45, 47, 49); transform-origin: 146.225px 386.87px;" id="eljj13hl7pii" class="animable"></polygon><path d="M148.34,402.83a10.21,10.21,0,0,0,1.71-1.31.21.21,0,0,0,0-.2.18.18,0,0,0-.16-.12c-.31,0-3.06-.23-3.72.59a.69.69,0,0,0-.11.67,1,1,0,0,0,.71.76A2.2,2.2,0,0,0,148.34,402.83Zm1.13-1.29c-1.1,1-2,1.45-2.55,1.32-.22-.05-.36-.22-.45-.51a.32.32,0,0,1,0-.33C146.87,401.58,148.36,401.5,149.47,401.54Z" style="fill: rgb(45, 47, 49); transform-origin: 148.047px 402.205px;" id="el38kthlq5swx" class="animable"></path><path d="M150,401.54l.06-.06a.19.19,0,0,0,0-.18c0-.09-1-2.16-2.14-2.43a1,1,0,0,0-.82.17.72.72,0,0,0-.3.83c.28.85,2.16,1.69,3.09,1.7A.19.19,0,0,0,150,401.54Zm-2.59-2.25a.64.64,0,0,1,.43-.06c.65.16,1.38,1.27,1.74,1.93-.9-.16-2.23-.85-2.42-1.41,0-.1,0-.24.18-.41Z" style="fill: rgb(45, 47, 49); transform-origin: 148.424px 400.207px;" id="elkpq1uugbbp" class="animable"></path><path d="M120.9,145.11l-7.23,12.44c-1.19,2.07-2.36,4.14-3.45,6.17-.54,1-1,2-1.51,3s-.88,1.94-1.06,2.43l-.39-3.7c.1.46.16.93.25,1.36s.15.88.25,1.27.17.81.25,1.2l.13.58c0,.11,0,.2,0,.29s0,.1,0,.14,0,.1-.21.1a3.22,3.22,0,1,1-1,6.36l-.71,0-.5,0c-.3,0-.61-.07-.89-.12a9.42,9.42,0,0,1-1.64-.46,12,12,0,0,1-2.78-1.53,14.8,14.8,0,0,1-2.2-2c-.32-.36-.61-.73-.91-1.11s-.52-.76-.78-1.14a3.79,3.79,0,0,1-.56-2.85l.17-.85a29.84,29.84,0,0,1,1.34-4.53c.47-1.31,1-2.53,1.51-3.73,1-2.39,2.15-4.68,3.31-6.93s2.35-4.45,3.58-6.63,2.5-4.3,3.88-6.45h0a6.5,6.5,0,0,1,11.08,6.79Z" style="fill: rgb(255, 139, 123); transform-origin: 108.79px 156.135px;" id="el0oz9tb6gmc2" class="animable"></path><path d="M116.85,133c8.14-.61,12.14,5.14,8.26,14.62a150.3,150.3,0,0,1-7.93,15.76c-.65,1.15-1.24,2.17-1.73,3L99.14,153.7C102.31,146.19,111.4,133.45,116.85,133Z" style="fill: rgb(38, 50, 56); transform-origin: 112.872px 149.668px;" id="elf8qvwyju3ss" class="animable"></path><g id="elvfe6xnikdi"><path d="M115.07,142.31c5.4-3.5-2.11,12.93-5.2,19.75l-4.8-3.73C106.36,153.46,110.92,145,115.07,142.31Z" style="opacity: 0.3; transform-origin: 111.02px 151.943px;" class="animable"></path></g><polygon points="137.89 408.14 129.9 407.53 130.13 388.94 138.12 389.55 137.89 408.14" style="fill: rgb(255, 139, 123); transform-origin: 134.01px 398.54px;" id="elktjuo5u3o3" class="animable"></polygon><path d="M129.55,406.57l9,.68a.59.59,0,0,1,.56.6L139,415a1.4,1.4,0,0,1-1.49,1.32c-3.12-.29-4.6-.59-8.55-.89-2.43-.19-12.77-.72-16.12-1s-3-3.57-1.59-3.76c6.46-.86,14.49-2.11,16.87-3.71A2.2,2.2,0,0,1,129.55,406.57Z" style="fill: rgb(38, 50, 56); transform-origin: 124.67px 411.443px;" id="el20nt9jwymuj" class="animable"></path><g id="el0ux3in4ww1m"><polygon points="138.12 389.55 130.13 388.94 130.01 398.52 138.01 399.13 138.12 389.55" style="opacity: 0.2; transform-origin: 134.065px 394.035px;" class="animable"></polygon></g><path d="M124.59,203.13s-4.9,60.62-5.17,83.61c-.3,25.17,7.32,109.22,7.32,109.22l14.64,1.12s-1.1-81.52,1.48-106.27c2.8-26.86,8.86-85.61,8.86-85.61Z" style="fill: rgb(45, 47, 49); transform-origin: 135.566px 300.105px;" id="elpqz7jfcdyab" class="animable"></path><g id="elz6t0l29rm9f"><path d="M124.59,203.13s-4.9,60.62-5.17,83.61c-.3,25.17,7.32,109.22,7.32,109.22l14.64,1.12s-1.1-81.52,1.48-106.27c2.8-26.86,8.86-85.61,8.86-85.61Z" style="fill: rgb(255, 255, 255); opacity: 0.3; transform-origin: 135.566px 300.105px;" class="animable"></path></g><polygon points="141.97 397.12 126.16 395.91 125.66 390.29 143.05 392.49 141.97 397.12" style="fill: rgb(45, 47, 49); transform-origin: 134.355px 393.705px;" id="elwxmw7hxn7f9" class="animable"></polygon><path d="M126.62,407.75a10.4,10.4,0,0,0,2.15-.13.18.18,0,0,0,.15-.13.2.2,0,0,0-.07-.2c-.24-.19-2.4-1.91-3.4-1.6a.7.7,0,0,0-.47.49,1,1,0,0,0,.17,1A2.17,2.17,0,0,0,126.62,407.75Zm1.65-.44c-1.45.18-2.49.05-2.84-.34a.68.68,0,0,1-.09-.68.35.35,0,0,1,.22-.25C126.1,405.88,127.39,406.65,128.27,407.31Z" style="fill: rgb(45, 47, 49); transform-origin: 126.92px 406.706px;" id="elzg97iutddzk" class="animable"></path><path d="M128.72,407.62a.14.14,0,0,0,.09,0,.19.19,0,0,0,.11-.14c0-.1.35-2.38-.4-3.22a.9.9,0,0,0-.77-.32.7.7,0,0,0-.72.51c-.24.86.84,2.62,1.6,3.15A.16.16,0,0,0,128.72,407.62Zm-.87-3.32a.53.53,0,0,1,.39.2,4.11,4.11,0,0,1,.35,2.57c-.65-.64-1.36-2-1.2-2.53,0-.1.1-.23.38-.24Z" style="fill: rgb(45, 47, 49); transform-origin: 127.999px 405.782px;" id="elegm634zjd68" class="animable"></path><path d="M109,201.94l42.73,3.26c.56-3.8.53-16.28,2.27-32a203,203,0,0,1,6.63-34.55c.25-.85.51-1.69.77-2.53,0,0-2.13-.61-5.21-1.3-2.55-.57-5.75-1.21-8.91-1.6a159.79,159.79,0,0,0-18.16-1.39c-2.81.05-5.57.3-7.77.56-2.82.35-4.49.7-4.49.7S107.52,155.91,109,201.94Z" style="fill: rgb(45, 47, 49); transform-origin: 135.121px 168.515px;" id="eltgm8zson4y" class="animable"></path><path d="M110.89,169.47a11.4,11.4,0,0,1,3.16-3.11,18,18,0,0,0,2.39-1.37.53.53,0,0,1,.82.42c0,.63-.3,1.64-2,3-.26,2-3.33,3.91-3.33,3.91Z" style="fill: rgb(255, 139, 123); transform-origin: 114.075px 168.612px;" id="el8nunjtmto98" class="animable"></path><g id="el1gbsubyq8nk"><polygon points="117.05 174.74 125.92 175.42 121.11 157.44 112.24 156.76 117.05 174.74" style="opacity: 0.3; transform-origin: 119.08px 166.09px;" class="animable"></polygon></g><polygon points="116.44 174.69 125.32 175.37 120.51 157.39 111.63 156.71 116.44 174.69" style="fill: rgb(255, 255, 255); transform-origin: 118.475px 166.04px;" id="elpn8vbprkkpt" class="animable"></polygon><g id="elzz3wjsjn2am"><path d="M154,173.15a203.18,203.18,0,0,1,6.63-34.55c-2.84-.46-7.74-.56-8.86,4C150.55,147.49,150.85,159.24,154,173.15Z" style="opacity: 0.3; transform-origin: 155.867px 155.77px;" class="animable"></path></g><path d="M164.39,142.31c.45,1.4.81,2.61,1.15,3.91s.65,2.57,1,3.87c.57,2.59,1.09,5.2,1.45,7.86a77.15,77.15,0,0,1,.75,8.14,50.66,50.66,0,0,1-.37,8.62l0,.32a5.43,5.43,0,0,1-1.58,3.17,9.69,9.69,0,0,1-2,1.48,11.34,11.34,0,0,1-1.66.77,14.88,14.88,0,0,1-2.76.74,29.67,29.67,0,0,1-4.59.41,61.86,61.86,0,0,1-8.18-.47c-2.63-.32-5.21-.74-7.77-1.26s-5.06-1.1-7.61-1.85a3.25,3.25,0,0,1,.88-6.37h.06l7.46-.08c2.48,0,4.94-.09,7.36-.21s4.8-.31,7-.61a19,19,0,0,0,2.91-.63,4.55,4.55,0,0,0,.87-.36c.09,0,.08-.08.05-.06a1.17,1.17,0,0,0-.47.32l-1.63,3.49a49.49,49.49,0,0,0-.32-6.54c-.26-2.27-.66-4.59-1.09-6.92s-1-4.67-1.52-7c-.26-1.17-.57-2.34-.86-3.51l-.88-3.4-.05-.19a6.5,6.5,0,0,1,12.47-3.63Z" style="fill: rgb(255, 139, 123); transform-origin: 149.333px 159.755px;" id="elllll02gaod" class="animable"></path><path d="M161.39,136.07c-7.82-2.45-12.49,2.55-11.19,12.74A109.91,109.91,0,0,0,154.38,166l17.23-5.3C170.11,152.62,166.62,137.71,161.39,136.07Z" style="fill: rgb(38, 50, 56); transform-origin: 160.797px 150.728px;" id="elq2tlh6nggn" class="animable"></path><path d="M130,131.78c5.36-.84,6.51-4,6.4-7.66a21.09,21.09,0,0,0-.23-2.71l7-5,5.13-3.66c-1.74,5.75-4,16.3-.3,20.5A78.29,78.29,0,0,1,132.1,142a2.59,2.59,0,0,1-3.41-1.59C127,134.94,130,131.78,130,131.78Z" style="fill: rgb(255, 139, 123); transform-origin: 138.237px 127.466px;" id="elbulw2qway5" class="animable"></path><g id="elh7uus40wxj6"><path d="M136.15,121.41a21.09,21.09,0,0,1,.23,2.71c2.5-.31,6.38-2.22,6.93-5a10.89,10.89,0,0,0-.17-2.72Z" style="opacity: 0.2; transform-origin: 139.741px 120.26px;" class="animable"></path></g><path d="M148.69,100.92c.37,8,1,12.61-2.53,17.21-5.3,6.91-15.39,4.61-18.12-3-2.45-6.88-2.66-18.76,4.69-23A10.55,10.55,0,0,1,148.69,100.92Z" style="fill: rgb(255, 139, 123); transform-origin: 137.747px 106.444px;" id="elzw8nv9jlci" class="animable"></path><path d="M145.35,96.08c-2.25,4.08-.54,7.06-.54,7.06l.42-1.92s2.84,3,2,6.48C152.21,105.05,152.77,94.75,145.35,96.08Z" style="fill: rgb(38, 50, 56); transform-origin: 147.571px 101.831px;" id="eldm68oh6g5g" class="animable"></path><path d="M149.5,97.3c-9,2-14.06,1.07-15.66.73,3.77-.26,4.76-2,4.76-2s-9,2.21-10.83,1.5c1.81-5.48,6-8,14.53-7.67S149.5,97.3,149.5,97.3Z" style="fill: rgb(38, 50, 56); transform-origin: 138.673px 94.1877px;" id="ell8ab6ppjkcp" class="animable"></path><path d="M152.52,108.34a8.43,8.43,0,0,1-4,4.09c-2.27,1-3.39-1-2.75-3.48.57-2.2,2.44-5.38,4.71-5.37S153.56,106.09,152.52,108.34Z" style="fill: rgb(255, 139, 123); transform-origin: 149.28px 108.137px;" id="el98t7f8dmvri" class="animable"></path><path d="M137,104.75c.07.65-.21,1.21-.63,1.27s-.82-.42-.89-1.06.22-1.21.63-1.27S137,104.11,137,104.75Z" style="fill: rgb(38, 50, 56); transform-origin: 136.24px 104.855px;" id="elchaz2nluree" class="animable"></path><path d="M129.79,105.74c.07.64-.21,1.21-.63,1.27s-.81-.42-.88-1.07.21-1.21.63-1.26S129.72,105.09,129.79,105.74Z" style="fill: rgb(38, 50, 56); transform-origin: 129.035px 105.846px;" id="el74ds72i1h7t" class="animable"></path><path d="M132.12,105.75a24.13,24.13,0,0,1-2.45,5.92c1.24.91,3.11.16,3.11.16Z" style="fill: rgb(255, 86, 82); transform-origin: 131.225px 108.935px;" id="eluaf1fx7gm9o" class="animable"></path><path d="M135.58,113.21a5.5,5.5,0,0,0,3.47-2.63.18.18,0,0,0-.09-.25.19.19,0,0,0-.25.08,5.27,5.27,0,0,1-3.92,2.57.18.18,0,0,0-.16.21.19.19,0,0,0,.22.16A5.25,5.25,0,0,0,135.58,113.21Z" style="fill: rgb(38, 50, 56); transform-origin: 136.849px 111.832px;" id="elx89wfpvy5i" class="animable"></path><path d="M139,102.1a.42.42,0,0,0,.16-.09.38.38,0,0,0,0-.54,3.68,3.68,0,0,0-3.23-1.15.36.36,0,0,0-.29.45.37.37,0,0,0,.45.29,2.92,2.92,0,0,1,2.53.93A.37.37,0,0,0,139,102.1Z" style="fill: rgb(38, 50, 56); transform-origin: 137.45px 101.199px;" id="el3mo6mtkgz3y" class="animable"></path><path d="M126.41,103.66a.37.37,0,0,0,.26-.24,3.16,3.16,0,0,1,1.94-2,.36.36,0,0,0,.27-.46.38.38,0,0,0-.46-.27h0a3.88,3.88,0,0,0-2.45,2.48.38.38,0,0,0,.23.49A.34.34,0,0,0,126.41,103.66Z" style="fill: rgb(38, 50, 56); transform-origin: 127.421px 102.178px;" id="ely7g8uox35o" class="animable"></path><path d="M134.8,172.37l-8.21-5.07.76,10.09s6.87,2.46,7.81-1.18Z" style="fill: rgb(255, 139, 123); transform-origin: 130.875px 172.751px;" id="elew2xia565c" class="animable"></path><path d="M129.2,168.91a11.6,11.6,0,0,0-3.23-3.1,18,18,0,0,1-2.61-1.76.52.52,0,0,0-.81.42c0,.62.53,2,2.2,3.4.31,2,3.41,3.9,3.41,3.9Z" style="fill: rgb(255, 139, 123); transform-origin: 125.875px 167.866px;" id="ela87akr7y3u" class="animable"></path><path d="M119.5,168.15l.73,6.32a1.34,1.34,0,0,0,1,1.14l6.15,1.78-.76-10-5.59-.71A1.33,1.33,0,0,0,119.5,168.15Z" style="fill: rgb(255, 139, 123); transform-origin: 123.435px 172.027px;" id="elmhpp4pcqdt" class="animable"></path><path d="M107,171.07l7.11-3.59-.18,8.88s-7.37,2.2-7.81-1.55Z" style="fill: rgb(255, 139, 123); transform-origin: 110.115px 172.241px;" id="el6yddjzf8m0o" class="animable"></path><path d="M117.18,167.81v7a.87.87,0,0,1-.64.84l-2.65.69.18-8.88,2-.52A.87.87,0,0,1,117.18,167.81Z" style="fill: rgb(255, 139, 123); transform-origin: 115.535px 171.623px;" id="elev49cpv5hb" class="animable"></path></g><g id="freepik--Plant--inject-7" class="animable" style="transform-origin: 330.635px 341.264px;"><path d="M333.16,290.91c6.71,6.68,5.74,13.46,1,18.26s-11.56,5.81-18.27-.88-10.81-18.51-6-23.31S326.45,284.23,333.16,290.91Z" style="fill: rgb(45, 47, 49); transform-origin: 322.875px 297.96px;" id="elp6i1ucmk04b" class="animable"></path><path d="M356.91,334.74c-8.29,1.47-13.29-2.46-15-8.08s.44-10.81,8.74-12.28,19.56,1.36,21.3,7S365.21,333.28,356.91,334.74Z" style="fill: rgb(45, 47, 49); transform-origin: 356.772px 324.523px;" id="el40o50uxvk1" class="animable"></path><path d="M313.13,347.87c6,2,10.09-.39,12-4.36s.83-8.05-5.14-10-14.62-1.11-16.51,2.86S307.15,345.89,313.13,347.87Z" style="fill: rgb(45, 47, 49); transform-origin: 314.548px 340.546px;" id="ele5blndnnmy" class="animable"></path><path d="M361.55,290.52c-5.74,7.87-12.83,8.51-18.51,5.12s-7.8-9.55-2.06-17.41,17.18-14.45,22.86-11.06S367.3,282.66,361.55,290.52Z" style="fill: rgb(45, 47, 49); transform-origin: 352.366px 281.922px;" id="elfxevdqeb2tl" class="animable"></path><path d="M328.09,393.61a1,1,0,0,1-1-.95c-3.07-59.26,19.37-105.29,19.6-105.75a1,1,0,0,1,1.34-.45,1,1,0,0,1,.45,1.34c-.22.45-22.44,46-19.39,104.75a1,1,0,0,1-.95,1.05Z" style="fill: rgb(38, 50, 56); transform-origin: 337.693px 339.983px;" id="elk3g37clk3nf" class="animable"></path><path d="M336.39,319.64h-.09a1,1,0,0,1-.91-1.09c0-.13,1.12-13-7.73-17.27a1,1,0,0,1,.86-1.81c10.12,4.84,8.92,18.68,8.86,19.27A1,1,0,0,1,336.39,319.64Z" style="fill: rgb(38, 50, 56); transform-origin: 332.272px 309.507px;" id="elguglsdimc8e" class="animable"></path><path d="M329.14,357.68a1,1,0,0,1-1-.92c0-.13-1.16-12.41-11.93-15.83a1,1,0,1,1,.6-1.9c12.07,3.82,13.31,17.43,13.32,17.57a1,1,0,0,1-.91,1.07Z" style="fill: rgb(38, 50, 56); transform-origin: 322.78px 348.317px;" id="elbttxl2hsyg8" class="animable"></path><path d="M331.3,342.38l-.24,0a1,1,0,0,1-.73-1.21c4.68-19,19.45-18.53,19.6-18.53a1,1,0,0,1-.09,2c-.54,0-13.29-.34-17.57,17A1,1,0,0,1,331.3,342.38Z" style="fill: rgb(38, 50, 56); transform-origin: 340.593px 332.509px;" id="el0eovp7ocwc3e" class="animable"></path><path d="M369.65,384.9a39.54,39.54,0,0,1-14.44,30.55,3.25,3.25,0,0,1-2.11.78H305.64a3.25,3.25,0,0,1-2.11-.78,39.58,39.58,0,0,1-14.44-30.55,39.16,39.16,0,0,1,1.62-11.21v0c.6-2,2.09-3.3,3.73-3.3H364.3a4.15,4.15,0,0,1,3.72,3.3v0A39.16,39.16,0,0,1,369.65,384.9Z" style="fill: rgb(45, 47, 49); transform-origin: 329.37px 393.31px;" id="elodw8n39erc" class="animable"></path><path d="M369.53,387.81A642.77,642.77,0,0,0,302,414.07c.27.25.56.49.84.74a640.09,640.09,0,0,1,66.65-25.91C369.48,388.54,369.51,388.18,369.53,387.81Z" style="fill: rgb(255, 255, 255); transform-origin: 335.765px 401.31px;" id="elts938lqwei" class="animable"></path><path d="M355.15,370.36h-1.73c-18.49,13.07-36.46,27.17-54,41.18.22.25.45.5.68.74C318,398,336.31,383.63,355.15,370.36Z" style="fill: rgb(255, 255, 255); transform-origin: 327.285px 391.32px;" id="el3e6gh17xu02" class="animable"></path><path d="M343.9,416.23q12.45-10.2,24.38-21c.16-.58.3-1.16.43-1.75q-12.85,11.74-26.38,22.79Z" style="fill: rgb(255, 255, 255); transform-origin: 355.52px 404.875px;" id="el1rhv64ffioe" class="animable"></path><path d="M344,370.36c-18.86,6.19-36.56,16-53.07,26.29.11.32.21.65.32,1,17.38-10.88,36.09-21.17,56.07-27.27Z" style="fill: rgb(255, 255, 255); transform-origin: 319.125px 384.005px;" id="eliptl23jfg4" class="animable"></path><path d="M289.7,378.1q8-4.22,16.31-7.74h-2.5q-6.9,3-13.59,6.5C289.84,377.27,289.77,377.69,289.7,378.1Z" style="fill: rgb(255, 255, 255); transform-origin: 297.855px 374.23px;" id="el6q164602anm" class="animable"></path><path d="M314.54,370.36h-1.47l-23.35,21.58c.07.38.16.77.24,1.15Z" style="fill: rgb(255, 255, 255); transform-origin: 302.13px 381.725px;" id="elf6of8v7931e" class="animable"></path></g><defs>     <filter id="active" height="200%">         <feMorphology in="SourceAlpha" result="DILATED" operator="dilate" radius="2"></feMorphology>                <feFlood flood-color="#32DFEC" flood-opacity="1" result="PINK"></feFlood>        <feComposite in="PINK" in2="DILATED" operator="in" result="OUTLINE"></feComposite>        <feMerge>            <feMergeNode in="OUTLINE"></feMergeNode>            <feMergeNode in="SourceGraphic"></feMergeNode>        </feMerge>    </filter>    <filter id="hover" height="200%">        <feMorphology in="SourceAlpha" result="DILATED" operator="dilate" radius="2"></feMorphology>                <feFlood flood-color="#ff0000" flood-opacity="0.5" result="PINK"></feFlood>        <feComposite in="PINK" in2="DILATED" operator="in" result="OUTLINE"></feComposite>        <feMerge>            <feMergeNode in="OUTLINE"></feMergeNode>            <feMergeNode in="SourceGraphic"></feMergeNode>        </feMerge>            <feColorMatrix type="matrix" values="0   0   0   0   0                0   1   0   0   0                0   0   0   0   0                0   0   0   1   0 "></feColorMatrix>    </filter></defs></svg>